#!OML:ASF E:\Mandelcareful walks\Project 1\Capture day 1\Session 1\Subject1.ASF
:FULLY-SPECIFIED
:DEGREES
304
root 7.49235 14.5509 -5.21828 -156.8 31.2756 181.792
lowerback 29.8442 3.33829 -4.0226
upperback 5.2437 3.67027 -3.98586
thorax -10.4418 2.20385 -3.68844
lowerneck -35.881 -3.25539 -6.88757
upperneck 17.7549 -1.02411 0.77872
head 11.5762 -0.799894 1.19009
rclavicle 4.77083e-015 1.19271e-014
rhumerus -5.67579 10.5928 -77.4249
rradius 74.619
rwrist -12.3507
rhand -17.2452 -21.6852
rfingers 7.12502
rthumb 8.99872 -51.4733
lclavicle 4.77083e-015 1.19271e-014
lhumerus 7.52193 -32.9985 48.9878
lradius 76.6348
lwrist 21.8452
lhand -24.1577 -16.9766
lfingers 7.12502
lthumb 2.3251 12.9905
rfemur -41.6071 -21.9542 -5.47812
rtibia 51.4493
rfoot -9.14873 -13.7764
rtoes -13.079
lfemur -68.7871 18.2566 -24.3236
ltibia 73.3075
lfoot -22.4586 1.54356
ltoes -6.65617
305
root 7.58982 14.5696 -5.20608 -156.532 31.3192 181.954
lowerback 29.5975 3.30718 -3.90004
upperback 5.11761 3.64725 -3.96271
thorax -10.462 2.1767 -3.71097
lowerneck -35.6984 -3.07326 -6.58464
upperneck 17.435 -0.947872 0.780097
head 11.4175 -0.735916 1.15835
rclavicle 9.54166e-015 -2.78299e-015
rhumerus -6.05509 10.3923 -77.5925
rradius 74.4815
rwrist -12.1096
rhand -16.4975 -21.4229
rfingers 7.12502
rthumb 9.72015 -51.1786
lclavicle 9.54166e-015 -2.78299e-015
lhumerus 7.3878 -32.1188 49.8088
lradius 76.6248
lwrist 21.7742
lhand -23.7275 -17.7708
lfingers 7.12502
lthumb 2.74053 12.1913
rfemur -40.3162 -20.167 -7.09403
rtibia 47.6088
rfoot -6.52219 -16.3333
rtoes -7.80385
lfemur -68.6134 18.3014 -23.6323
ltibia 73.0932
lfoot -22.553 1.73439
ltoes -6.76262
306
root 7.67883 14.5792 -5.18997 -156.283 31.2312 182.001
lowerback 29.3175 3.15744 -3.60878
upperback 5.03346 3.53443 -3.89438
thorax -10.4138 2.10501 -3.73918
lowerneck -35.6137 -2.92589 -6.53349
upperneck 17.1045 -0.737274 0.6489
head 11.268 -0.644881 1.14072
rclavicle -1.11319e-014 1.98785e-014
rhumerus -6.20605 10.1132 -77.5483
rradius 74.2933
rwrist -11.9895
rhand -16.5332 -21.3061
rfingers 7.12502
rthumb 9.68578 -51.0634
lclavicle -1.11319e-014 1.98785e-014
lhumerus 7.22005 -31.2005 50.8084
lradius 76.6205
lwrist 21.7833
lhand -23.9312 -17.8964
lfingers 7.12502
lthumb 2.54378 12.0682
rfemur -39.3584 -19.3327 -8.15652
rtibia 44.1837
rfoot -3.18161 -17.9392
rtoes -8.80869
lfemur -68.6076 18.1976 -23.1477
ltibia 72.874
lfoot -22.3715 2.07904
ltoes -7.48018
307
root 7.80415 14.6013 -5.15799 -156.232 31.2924 182.145
lowerback 29.2609 3.28667 -3.7394
upperback 4.98241 3.66291 -3.69477
thorax -10.4621 2.16282 -3.48255
lowerneck -35.4272 -2.75259 -6.24464
upperneck 16.7689 -0.501929 0.0996166
head 11.1008 -0.583086 0.932665
rclavicle -2.82274e-014 -2.78299e-015
rhumerus -6.47831 9.82153 -77.1795
rradius 74.2671
rwrist -12.0022
rhand -17.2484 -21.5341
rfingers 7.12502
rthumb 8.99561 -51.3223
lclavicle -2.82274e-014 -2.78299e-015
lhumerus 7.0188 -30.583 51.9289
lradius 76.7899
lwrist 22.1331
lhand -24.7183 -17.6499
lfingers 7.12502
lthumb 1.7836 12.3224
rfemur -38.3351 -17.9075 -9.10821
rtibia 41.1042
rfoot -0.723864 -19.072
rtoes -8.17412
lfemur -68.2532 18.7172 -22.5445
ltibia 72.5969
lfoot -22.1585 1.91333
ltoes -7.82572
308
root 7.92799 14.6149 -5.11958 -156.121 31.2264 182.181
lowerback 29.1814 3.31757 -3.58356
upperback 4.91181 3.7421 -3.58991
thorax -10.5015 2.18696 -3.47912
lowerneck -35.1824 -2.63264 -6.02375
upperneck 16.3091 -0.373258 -0.224764
head 10.8831 -0.537876 0.801596
rclavicle -4.01545e-014 4.96962e-014
rhumerus -6.82157 9.46639 -76.8698
rradius 74.2013
rwrist -11.9799
rhand -17.391 -21.6698
rfingers 7.12502
rthumb 8.85803 -51.4639
lclavicle -4.01545e-014 4.96962e-014
lhumerus 6.8769 -30.1407 52.998
lradius 76.9205
lwrist 22.3133
lhand -25.5051 -17.3243
lfingers 7.12502
lthumb 1.02375 12.653
rfemur -37.6578 -16.7759 -9.91152
rtibia 38.568
rfoot 1.46647 -19.8365
rtoes -7.51191
lfemur -68.0634 18.9507 -21.9754
ltibia 72.2926
lfoot -21.9952 1.96388
ltoes -8.16569
309
root 8.05366 14.616 -5.07624 -156.044 31.031 182.074
lowerback 29.0708 3.18237 -3.32604
upperback 4.86971 3.64119 -3.5557
thorax -10.4863 2.12727 -3.54325
lowerneck -35.1336 -2.35568 -5.77591
upperneck 15.8524 -0.0445854 -0.492358
head 10.6933 -0.391104 0.724606
rclavicle -1.03368e-014 3.18055e-015
rhumerus -7.05468 9.16487 -76.8178
rradius 74.1179
rwrist -11.9931
rhand -16.8939 -21.6346
rfingers 7.12502
rthumb 9.33768 -51.4078
lclavicle -1.03368e-014 3.18055e-015
lhumerus 6.63207 -29.5155 53.9954
lradius 76.9781
lwrist 22.3531
lhand -26.0493 -16.9663
lfingers 7.12502
lthumb 0.498117 13.0129
rfemur -37.2124 -16.2132 -10.447
rtibia 36.5274
rfoot 3.83873 -20.109
rtoes -9.74114
lfemur -67.9971 18.9531 -21.5497
ltibia 71.9954
lfoot -21.7815 2.41963
ltoes -10.1038
310
root 8.22329 14.6337 -5.01794 -156.288 31.1722 182.021
lowerback 29.1873 3.35381 -3.84515
upperback 4.91709 3.72232 -3.42934
thorax -10.5248 2.18737 -3.13917
lowerneck -35.261 -1.82817 -5.1792
upperneck 15.5636 0.58129 -1.20231
head 10.5938 -0.151448 0.48221
rclavicle 3.18055e-014 -2.98177e-014
rhumerus -7.29882 9.17256 -76.6544
rradius 74.1314
rwrist -12.2474
rhand -16.5376 -21.5785
rfingers 7.12502
rthumb 9.68152 -51.336
lclavicle 3.18055e-014 -2.98177e-014
lhumerus 6.28562 -28.8286 54.8835
lradius 77.0341
lwrist 22.5481
lhand -25.9889 -17.1949
lfingers 7.12502
lthumb 0.556488 12.7841
rfemur -36.8949 -15.2591 -10.6246
rtibia 35.2131
rfoot 5.91446 -19.1053
rtoes -10.4405
lfemur -67.3662 19.7092 -21.0479
ltibia 71.6052
lfoot -21.6149 2.52407
ltoes -12.7189
311
root 8.35677 14.627 -4.95577 -156.167 30.9179 181.62
lowerback 28.8164 3.12547 -3.69939
upperback 4.88915 3.47785 -3.44269
thorax -10.3677 2.0659 -3.11963
lowerneck -35.2164 -1.31472 -4.47868
upperneck 15.1795 1.15797 -2.05892
head 10.4454 0.0573736 0.161558
rclavicle 1.03368e-014 -4.05521e-014
rhumerus -7.55128 9.33844 -76.2867
rradius 74.2271
rwrist -12.6725
rhand -16.4058 -21.5555
rfingers 7.12502
rthumb 9.80869 -51.307
lclavicle 1.03368e-014 -4.05521e-014
lhumerus 5.87746 -28.1734 55.7003
lradius 77.0733
lwrist 22.9082
lhand -25.8712 -17.662
lfingers 7.12502
lthumb 0.670136 12.3167
rfemur -37.3486 -15.573 -10.6698
rtibia 34.755
rfoot 6.79322 -18.1804
rtoes -13.2971
lfemur -67.5671 19.5842 -20.7796
ltibia 71.2526
lfoot -21.6182 3.07372
ltoes -15.0796
312
root 8.52157 14.6265 -4.8812 -156.137 30.9585 181.412
lowerback 28.5322 3.12857 -3.86253
upperback 4.90385 3.45129 -3.35589
thorax -10.2227 2.05823 -2.89568
lowerneck -34.801 -0.909642 -4.12949
upperneck 14.444 1.64884 -2.62243
head 10.1153 0.262301 -0.00872737
rclavicle -2.94201e-014 4.92986e-014
rhumerus -7.71412 9.38437 -75.9855
rradius 74.2844
rwrist -12.9532
rhand -16.708 -21.7645
rfingers 7.12502
rthumb 9.51711 -51.5296
lclavicle -2.94201e-014 4.92986e-014
lhumerus 5.43312 -27.5596 56.5547
lradius 76.9674
lwrist 23.1546
lhand -25.983 -17.8278
lfingers 7.12502
lthumb 0.562188 12.1512
rfemur -37.9544 -15.747 -10.1777
rtibia 35.2295
rfoot 5.23273 -18.0442
rtoes -16.7229
lfemur -67.4175 20.0004 -20.2817
ltibia 70.8821
lfoot -21.8306 3.78607
ltoes -19.2032
313
root 8.71806 14.6403 -4.8008 -156.768 30.7788 181.178
lowerback 29.0197 3.14106 -4.06115
upperback 5.00777 3.42563 -3.22586
thorax -10.3657 2.06473 -2.65517
lowerneck -34.6753 -0.6765 -4.37483
upperneck 14.1453 2.02226 -2.451
head 9.97882 0.455435 0.158901
rclavicle -3.97569e-015 -3.49861e-014
rhumerus -7.99259 9.45494 -75.8452
rradius 74.2458
rwrist -12.9583
rhand -17.4117 -21.912
rfingers 7.12502
rthumb 8.83809 -51.707
lclavicle -3.97569e-015 -3.49861e-014
lhumerus 5.03052 -27.2008 57.2826
lradius 76.7062
lwrist 23.2914
lhand -26.2269 -18.0458
lfingers 7.12502
lthumb 0.326566 11.9336
rfemur -37.7727 -15.9359 -9.42429
rtibia 36.3855
rfoot 3.48859 -18.6659
rtoes -18.4371
lfemur -66.3164 20.2583 -19.4736
ltibia 70.3366
lfoot -21.7238 4.27959
ltoes -22.7148
